<svg width="78" height="24" viewBox="0 0 78 24" fill="none" xmlns="http://www.w3.org/2000/svg">
<g clip-path="url(#clip0_82_3684)">
<path d="M9.05005 15.6177L17.15 23.7177L20.15 12.6177L15.35 16.8177L9.05005 15.6177Z" fill="#8BC0E1"/>
<path d="M20.35 11.3177L23.25 0.317688L12.25 3.31769L18.25 5.31769L20.35 11.3177Z" fill="#007ACE"/>
<path d="M8.05005 14.6177L0.0500488 6.5177L11.15 3.5177L6.85005 8.3177L8.05005 14.6177Z" fill="#58A5D4"/>
<path d="M39.009 2.79971V4.89971H34.809V16.6997H32.309V4.89971H28.009V2.79971H39.009Z" fill="#007ACE"/>
<path d="M50.809 16.7997H48.809C48.609 16.7997 48.409 16.6997 48.209 16.5997C48.109 16.4997 48.009 16.3997 47.909 16.1997L46.909 13.2997H41.109L40.109 16.1997C40.009 16.3997 39.909 16.4997 39.809 16.5997C39.609 16.6997 39.409 16.7997 39.209 16.7997H37.209L42.709 2.89969H45.309L50.809 16.7997ZM41.809 11.3997H46.309L44.609 6.79969C44.509 6.59969 44.409 6.29969 44.409 6.09969C44.309 5.79969 44.209 5.49969 44.109 5.19969C44.009 5.49969 43.909 5.79969 43.809 6.09969C43.709 6.29969 43.609 6.59969 43.609 6.79969L41.809 11.3997Z" fill="#007ACE"/>
<path d="M59.109 11.5997C59.209 11.7997 59.309 12.0997 59.409 12.2997C59.509 12.0997 59.609 11.7997 59.709 11.5997C59.809 11.3997 59.909 11.1997 60.009 10.9997L64.109 3.29971C64.109 3.19971 64.209 3.09971 64.309 3.09971C64.409 2.99971 64.409 2.99971 64.509 2.99971C64.609 2.99971 64.709 2.89971 64.709 2.89971H66.909V16.7997H64.609V7.19971C64.609 6.99971 64.609 6.79971 64.709 6.59971L60.509 14.4997C60.409 14.6997 60.309 14.7997 60.109 14.8997C59.909 14.9997 59.809 15.0997 59.609 15.0997H59.309C59.109 15.0997 58.909 15.0997 58.809 14.8997C58.609 14.7997 58.509 14.6997 58.409 14.4997L54.009 6.49971C54.009 6.69971 54.009 6.89971 54.009 7.09971V16.6997H51.709V2.79971H54.009C54.109 2.79971 54.209 2.79971 54.209 2.89971C54.309 2.89971 54.309 2.99971 54.409 2.99971C54.509 3.09971 54.509 3.09971 54.609 3.19971L58.809 10.9997C58.909 11.0997 59.009 11.2997 59.109 11.5997Z" fill="#007ACE"/>
<path d="M76.9091 5.2997C76.8091 5.3997 76.8091 5.4997 76.7091 5.5997C76.6091 5.6997 76.5091 5.6997 76.4091 5.6997C76.2091 5.6997 76.1091 5.5997 75.9091 5.4997C75.7091 5.3997 75.5091 5.2997 75.3091 5.1997C75.1091 5.0997 74.8091 4.9997 74.6091 4.8997C74.3091 4.7997 73.9091 4.6997 73.6091 4.6997C73.3091 4.6997 73.0091 4.6997 72.7091 4.7997C72.5091 4.8997 72.2091 4.9997 72.0091 5.0997C71.8091 5.2997 71.7091 5.3997 71.6091 5.6997C71.5091 5.8997 71.5091 6.1997 71.5091 6.3997C71.5091 6.6997 71.6091 6.9997 71.8091 7.1997C72.0091 7.3997 72.3091 7.5997 72.5091 7.7997C72.8091 7.9997 73.2091 8.0997 73.5091 8.1997C73.9091 8.2997 74.3091 8.3997 74.7091 8.5997C75.1091 8.6997 75.5091 8.8997 75.9091 9.0997C76.3091 9.2997 76.6091 9.4997 76.9091 9.7997C77.2091 10.0997 77.5091 10.3997 77.6091 10.7997C77.8091 11.2997 77.9091 11.7997 77.9091 12.2997C77.9091 12.8997 77.8091 13.4997 77.6091 14.0997C77.4091 14.5997 77.1091 15.0997 76.6091 15.4997C76.2091 15.8997 75.6091 16.2997 75.1091 16.4997C74.4091 16.6997 73.7091 16.8997 73.0091 16.7997C72.6091 16.7997 72.1091 16.7997 71.7091 16.6997C71.2091 16.5997 70.8091 16.4997 70.4091 16.3997C70.0091 16.1997 69.7091 16.0997 69.3091 15.7997C69.0091 15.5997 68.7091 15.2997 68.4091 15.0997L69.1091 13.7997C69.2091 13.6997 69.3091 13.5997 69.3091 13.5997C69.4091 13.4997 69.5091 13.4997 69.6091 13.4997C69.8091 13.4997 70.0091 13.5997 70.1091 13.6997C70.3091 13.7997 70.5091 13.9997 70.8091 14.1997C71.1091 14.3997 71.4091 14.4997 71.7091 14.6997C72.1091 14.7997 72.5091 14.8997 73.0091 14.8997C73.6091 14.8997 74.2091 14.7997 74.7091 14.3997C75.1091 13.9997 75.4091 13.4997 75.3091 12.8997C75.3091 12.5997 75.2091 12.2997 75.0091 11.9997C74.8091 11.7997 74.5091 11.5997 74.3091 11.3997C74.0091 11.1997 73.6091 11.0997 73.3091 10.9997L72.1091 10.6997C71.7091 10.5997 71.3091 10.3997 70.9091 10.1997C70.5091 9.9997 70.2091 9.7997 69.9091 9.4997C69.6091 9.1997 69.3091 8.7997 69.2091 8.3997C69.1091 7.6997 69.0091 7.0997 69.0091 6.5997C69.0091 6.0997 69.1091 5.5997 69.3091 5.0997C69.5091 4.5997 69.8091 4.1997 70.2091 3.7997C70.6091 3.3997 71.1091 3.0997 71.6091 2.8997C72.2091 2.6997 72.9091 2.5997 73.5091 2.5997C74.3091 2.5997 75.1091 2.6997 75.8091 2.9997C76.5091 3.1997 77.1091 3.5997 77.6091 4.0997L76.9091 5.2997Z" fill="#007ACE"/>
</g>
<defs>
<clipPath id="clip0_82_3684">
<rect width="77.9" height="23" fill="white" transform="translate(0.0500488 0.317688)"/>
</clipPath>
</defs>
</svg>
