<svg width="241" height="57" viewBox="0 0 241 57" fill="none" xmlns="http://www.w3.org/2000/svg">
<g clip-path="url(#clip0_82_3683)">
<path d="M118.766 7.69467L116.695 16.2494H122.031L119.984 7.69467H118.766ZM112.551 22.2866L116.67 5.39838H122.056L126.2 22.2866H123.472L122.568 18.6626H116.158L115.254 22.2866H112.551Z" fill="#83878B"/>
<path d="M135.482 15.189C135.482 13.974 135.292 13.1223 134.908 12.638C134.528 12.1537 133.88 11.9115 132.972 11.9115C132.064 11.9115 131.4 12.1662 130.987 12.6756C130.575 13.1849 130.356 14.0241 130.343 15.189H135.486H135.482ZM136.943 20.0696L137.624 19.9945L137.673 21.9902C135.82 22.3659 134.182 22.558 132.754 22.558C130.95 22.558 129.654 22.057 128.866 21.0549C128.078 20.0529 127.685 18.4497 127.685 16.2494C127.685 11.8781 129.448 9.69455 132.972 9.69455C136.497 9.69455 138.09 11.5775 138.09 15.3393L137.921 17.264H130.368C130.385 18.2827 130.603 19.03 131.024 19.506C131.445 19.982 132.234 20.2199 133.389 20.2199C134.545 20.2199 135.729 20.1698 136.947 20.0738" fill="#83878B"/>
<path d="M140.649 22.2866V9.96175H143.282V11.4397C144.665 10.5379 146.043 9.9534 147.426 9.69037V12.3749C146.027 12.6547 144.834 13.0179 143.844 13.4605L143.307 13.6817V22.2866H140.649Z" fill="#83878B"/>
<path d="M152.102 19.3056C152.478 19.9611 153.208 20.2909 154.294 20.2909C155.379 20.2909 156.114 19.9611 156.485 19.3056C156.857 18.6501 157.047 17.5729 157.047 16.0741C157.047 14.5752 156.849 13.5189 156.448 12.8927C156.052 12.2706 155.33 11.9574 154.29 11.9574C153.25 11.9574 152.532 12.2706 152.131 12.8927C151.735 13.5189 151.533 14.5752 151.533 16.0741C151.533 17.5729 151.718 18.6459 152.094 19.3056M150.117 11.2936C150.955 10.2248 152.346 9.69037 154.294 9.69037C156.242 9.69037 157.637 10.2248 158.471 11.2936C159.308 12.3624 159.725 13.9657 159.725 16.0991C159.725 18.2326 159.321 19.8442 158.508 20.9297C157.695 22.0152 156.291 22.558 154.29 22.558C152.288 22.558 150.885 22.0152 150.076 20.9297C149.263 19.8442 148.858 18.2368 148.858 16.0991C148.858 13.9615 149.275 12.3624 150.113 11.2936" fill="#83878B"/>
<path d="M167.674 12.0827C166.911 12.0827 166.147 12.2539 165.384 12.6004L165.017 12.7716V20.0446C165.664 20.1782 166.383 20.2408 167.163 20.2408C168.269 20.2408 169.032 19.9193 169.453 19.2805C169.874 18.6418 170.085 17.5479 170.085 16.0031C170.085 13.3895 169.28 12.0827 167.67 12.0827M162.363 27.589V9.96593H164.996V10.73C166.114 10.0411 167.163 9.69455 168.141 9.69455C169.75 9.69455 170.927 10.1914 171.674 11.1851C172.421 12.1787 172.796 13.8488 172.796 16.191C172.796 18.5332 172.371 20.1782 171.517 21.1343C170.663 22.0862 169.272 22.5663 167.336 22.5663C166.672 22.5663 165.9 22.4912 165.021 22.345V27.5973H162.367L162.363 27.589Z" fill="#83878B"/>
<path d="M182.83 9.96591H185.463V22.2908H182.83V21.5267C181.645 22.2156 180.547 22.5621 179.54 22.5621C177.869 22.5621 176.746 22.107 176.177 21.1927C175.607 20.2825 175.322 18.6835 175.322 16.3997V9.96591H177.98V16.4248C177.98 17.9027 178.1 18.9006 178.348 19.4099C178.591 19.9193 179.161 20.174 180.052 20.174C180.944 20.174 181.732 20.0112 182.467 19.6813L182.834 19.531V9.96591H182.83Z" fill="#83878B"/>
<path d="M195.888 15.189C195.888 13.974 195.699 13.1223 195.315 12.638C194.935 12.1537 194.287 11.9115 193.379 11.9115C192.471 11.9115 191.807 12.1662 191.394 12.6756C190.981 13.1849 190.762 14.0241 190.746 15.189H195.888ZM197.354 20.0696L198.035 19.9945L198.084 21.9902C196.231 22.3659 194.592 22.558 193.16 22.558C191.357 22.558 190.061 22.057 189.272 21.0549C188.484 20.0529 188.092 18.4497 188.092 16.2494C188.092 11.8781 189.854 9.69455 193.379 9.69455C196.904 9.69455 198.497 11.5775 198.497 15.3393L198.328 17.264H190.775C190.791 18.2827 191.01 19.03 191.431 19.506C191.852 19.982 192.64 20.2199 193.796 20.2199C194.952 20.2199 196.136 20.1698 197.354 20.0738" fill="#83878B"/>
<path d="M201.056 22.2866V9.96175H203.689V11.4397C205.067 10.5379 206.45 9.9534 207.833 9.69037V12.3749C206.433 12.6547 205.241 13.0179 204.25 13.4605L203.714 13.6817V22.2866H201.056Z" fill="#83878B"/>
<path d="M210.103 6.38788H212.736V9.96175H216.1V12.2539H212.736V17.6773C212.736 18.6793 212.81 19.3432 212.955 19.673C213.099 20.0028 213.475 20.1656 214.073 20.1656L216.071 20.0905L216.19 22.2365C215.101 22.4494 214.271 22.558 213.706 22.558C212.323 22.558 211.378 22.2365 210.866 21.5977C210.354 20.9589 210.099 19.7481 210.099 17.9737V6.38788H210.103Z" fill="#83878B"/>
<path d="M220.92 19.3056C221.292 19.9611 222.022 20.2909 223.112 20.2909C224.201 20.2909 224.932 19.9611 225.303 19.3056C225.675 18.6501 225.865 17.5729 225.865 16.0741C225.865 14.5752 225.667 13.5189 225.266 12.8927C224.87 12.2706 224.148 11.9574 223.108 11.9574C222.068 11.9574 221.349 12.2706 220.949 12.8927C220.549 13.5189 220.351 14.5752 220.351 16.0741C220.351 17.5729 220.536 18.6459 220.912 19.3056M218.935 11.2936C219.773 10.2248 221.164 9.69037 223.112 9.69037C225.06 9.69037 226.455 10.2248 227.289 11.2936C228.126 12.3624 228.543 13.9657 228.543 16.0991C228.543 18.2326 228.139 19.8442 227.326 20.9297C226.513 22.0152 225.109 22.558 223.108 22.558C221.106 22.558 219.703 22.0152 218.894 20.9297C218.081 19.8442 217.676 18.2368 217.676 16.0991C217.676 13.9615 218.093 12.3624 218.931 11.2936" fill="#83878B"/>
<path d="M239.633 12.5044C237.718 12.2414 236.327 12.1078 235.465 12.1078C234.602 12.1078 234.008 12.2121 233.673 12.4167C233.339 12.6213 233.174 12.9469 233.174 13.3895C233.174 13.8321 233.356 14.1452 233.723 14.3247C234.09 14.5084 234.949 14.7172 236.307 14.9552C237.66 15.1931 238.626 15.5689 239.196 16.0741C239.765 16.5834 240.05 17.4894 240.05 18.7879C240.05 20.0863 239.637 21.0424 238.82 21.6478C237.999 22.2574 236.802 22.5622 235.225 22.5622C234.235 22.5622 232.984 22.4244 231.474 22.1446L230.718 22.0194L230.817 19.7774C232.765 20.0404 234.173 20.174 235.035 20.174C235.898 20.174 236.509 20.0655 236.876 19.8525C237.244 19.6396 237.425 19.2847 237.425 18.7921C237.425 18.2994 237.248 17.957 236.901 17.7692C236.55 17.5813 235.716 17.3725 234.392 17.1513C233.067 16.93 232.097 16.5793 231.478 16.1033C230.859 15.6273 230.553 14.7548 230.553 13.4897C230.553 12.2247 230.978 11.2811 231.833 10.6548C232.687 10.0327 233.777 9.7196 235.11 9.7196C236.15 9.7196 237.425 9.85321 238.936 10.1162L239.691 10.2624L239.641 12.5044H239.633Z" fill="#83878B"/>
<path d="M118.597 29.689L116.038 39.0328H122.423L119.864 29.689H118.597ZM112.551 45.1201L117.182 28.0607H121.276L125.907 45.1201H124.053L122.836 40.7321H115.621L114.404 45.1201H112.551Z" fill="#83878B"/>
<path d="M128.247 45.1201V32.7953H130.05V34.4695C131.466 33.4842 132.952 32.837 134.508 32.5239V34.3943C133.827 34.5279 133.113 34.7325 132.374 35.0081C131.635 35.2878 131.07 35.5341 130.682 35.7471L130.071 36.0685V45.1159H128.243L128.247 45.1201Z" fill="#83878B"/>
<path d="M138.115 36.7658C138.115 37.7344 138.33 38.4233 138.763 38.8366C139.192 39.2458 139.902 39.4545 140.897 39.4545C141.891 39.4545 142.593 39.25 143.018 38.8366C143.439 38.4275 143.65 37.7302 143.65 36.7533C143.65 35.7763 143.439 35.0791 143.018 34.6699C142.597 34.2607 141.887 34.052 140.897 34.052C139.906 34.052 139.196 34.2607 138.763 34.6824C138.334 35.1041 138.115 35.7972 138.115 36.7658ZM137.946 47.0448C137.946 47.9174 138.185 48.5186 138.664 48.8568C139.143 49.195 140.03 49.362 141.322 49.362C142.614 49.362 143.538 49.1783 144.1 48.8192C144.661 48.456 144.942 47.8548 144.942 47.0073C144.942 46.1597 144.739 45.6128 144.331 45.3665C143.926 45.1201 143.13 44.9949 141.945 44.9949L139.312 44.8696C138.775 45.2621 138.412 45.6086 138.226 45.905C138.041 46.2015 137.946 46.5772 137.946 47.0407M141.38 50.9151C139.432 50.9151 138.07 50.6479 137.298 50.1135C136.526 49.5791 136.142 48.6063 136.142 47.191C136.142 46.5188 136.287 45.9718 136.58 45.5502C136.873 45.1326 137.368 44.6609 138.066 44.1348C137.612 43.8217 137.385 43.258 137.385 42.4355C137.385 42.1558 137.587 41.6381 137.995 40.8824L138.214 40.49C136.931 39.8971 136.291 38.6571 136.291 36.7658C136.291 33.956 137.81 32.549 140.847 32.549C141.627 32.549 142.35 32.6325 143.014 32.7953L143.381 32.8663L146.989 32.7661V34.3442L144.673 34.2941C145.21 34.8369 145.478 35.6594 145.478 36.7574C145.478 38.3022 145.102 39.3836 144.343 40.0015C143.588 40.6152 142.395 40.9242 140.773 40.9242C140.336 40.9242 139.935 40.8908 139.58 40.824C139.287 41.5463 139.143 42.018 139.143 42.231C139.143 42.7403 139.3 43.0576 139.605 43.1787C139.915 43.304 140.847 43.3624 142.407 43.3624C143.968 43.3624 145.086 43.6087 145.771 44.1014C146.452 44.5941 146.795 45.5543 146.795 46.9864C146.795 49.6 144.991 50.9068 141.384 50.9068" fill="#83878B"/>
<path d="M156.828 38.2438C156.828 36.7324 156.589 35.6636 156.11 35.0373C155.631 34.4152 154.851 34.1021 153.77 34.1021C152.688 34.1021 151.875 34.4319 151.331 35.0874C150.786 35.7429 150.505 36.795 150.489 38.2438H156.824H156.828ZM157.488 43.592L158.194 43.5169L158.244 44.9698C156.391 45.2328 154.806 45.3623 153.489 45.3623C151.735 45.3623 150.493 44.8487 149.762 43.8217C149.032 42.7946 148.664 41.1955 148.664 39.0287C148.664 34.7075 150.361 32.5448 153.757 32.5448C155.396 32.5448 156.626 33.0082 157.439 33.9392C158.252 34.8661 158.656 36.3274 158.656 38.3147L158.561 39.7217H150.522C150.522 41.087 150.765 42.0974 151.252 42.7528C151.739 43.4125 152.589 43.7382 153.799 43.7382C155.008 43.7382 156.238 43.6922 157.493 43.592" fill="#83878B"/>
<path d="M163.333 45.1201H161.504V32.7953H163.308V33.6595C164.624 32.9205 165.883 32.549 167.084 32.549C168.71 32.549 169.8 32.9915 170.361 33.8808C170.923 34.7701 171.203 36.3483 171.203 38.6153V45.1243H169.4V38.6654C169.4 36.9537 169.23 35.7846 168.9 35.15C168.566 34.5196 167.856 34.2023 166.767 34.2023C166.246 34.2023 165.698 34.2816 165.12 34.4361C164.542 34.5906 164.1 34.745 163.791 34.8912L163.329 35.1125V45.1201H163.333Z" fill="#83878B"/>
<path d="M180.902 34.3985H177.027V40.2895C177.027 41.7049 177.126 42.6318 177.332 43.0743C177.535 43.5169 178.017 43.7382 178.781 43.7382L180.952 43.592L181.072 45.1201C179.982 45.2996 179.157 45.3915 178.587 45.3915C177.32 45.3915 176.445 45.0784 175.958 44.4563C175.471 43.83 175.227 42.6401 175.227 40.8824V34.3985H173.498V32.7953H175.227V29.0252H177.031V32.7953H180.906V34.3985H180.902Z" fill="#83878B"/>
<path d="M183.676 32.9957H185.504V45.3205H183.676V32.9957ZM183.676 28.0649H185.504V30.2109H183.676V28.0649Z" fill="#83878B"/>
<path d="M190.308 45.1201H188.48V32.7953H190.284V33.6595C191.6 32.9205 192.859 32.549 194.06 32.549C195.686 32.549 196.776 32.9915 197.337 33.8808C197.898 34.7701 198.179 36.3483 198.179 38.6153V45.1243H196.375V38.6654C196.375 36.9537 196.21 35.7846 195.876 35.15C195.542 34.5196 194.832 34.2023 193.742 34.2023C193.222 34.2023 192.673 34.2816 192.095 34.4361C191.518 34.5906 191.076 34.745 190.766 34.8912L190.304 35.1125V45.1201H190.308Z" fill="#83878B"/>
<path d="M202.661 41.5463C202.661 43.0576 203.28 43.8133 204.514 43.8133C205.62 43.8133 206.706 43.6254 207.779 43.2455L208.34 43.0493V38.9828L204.733 39.3293C204.003 39.3961 203.474 39.609 203.148 39.9681C202.822 40.3271 202.661 40.8574 202.661 41.5463ZM210.169 36.5195V42.8322C210.218 43.4417 210.689 43.8008 211.58 43.9177L211.506 45.3706C210.222 45.3706 209.257 45.0408 208.609 44.3853C207.148 45.045 205.682 45.3706 204.221 45.3706C203.099 45.3706 202.249 45.0491 201.662 44.4104C201.076 43.7716 200.783 42.8489 200.783 41.6506C200.783 40.4524 201.085 39.5673 201.683 38.9995C202.286 38.4358 203.227 38.0851 204.51 37.9515L208.336 37.5799V36.5195C208.336 35.6803 208.159 35.0832 207.8 34.72C207.441 34.3568 206.954 34.1772 206.339 34.1772C205.039 34.1772 203.689 34.2607 202.294 34.4236L201.539 34.4987L201.464 33.0917C203.251 32.7327 204.836 32.549 206.215 32.549C207.593 32.549 208.596 32.8704 209.224 33.5092C209.851 34.148 210.16 35.1542 210.16 36.5153" fill="#83878B"/>
<path d="M86.0745 27.9067C84.2915 29.368 81.5386 30.7666 78.1089 31.9565C71.0513 34.3989 61.7732 35.8226 51.777 36.0105L62.999 13.8868C68.6409 14.5673 73.7918 15.6821 78.113 17.1767C81.5427 18.3625 84.2956 19.7653 86.0786 21.2224C87.0691 22.0324 88.2454 23.2682 88.2454 24.5625C88.2454 25.8567 87.065 27.0926 86.0786 27.9025M20.8514 31.9523C17.4217 30.7624 14.6688 29.3638 12.8858 27.9025C11.8953 27.0926 10.719 25.8567 10.719 24.5625C10.719 23.2682 11.8994 22.0324 12.8858 21.2224C14.6688 19.7611 17.4217 18.3625 20.8514 17.1767C26.0311 15.3814 32.4119 14.1373 39.3952 13.5277V35.6014C32.4119 34.9918 26.0311 33.7476 20.8514 31.9523ZM64.9718 9.98724L69.2889 1.47843C69.6439 0.714386 69 -0.133156 68.1787 0.0213224C62.4913 1.09432 56.1147 1.87923 49.4781 1.87923C46.4198 1.87923 43.4151 1.52018 40.5096 1.24462C39.9111 1.18617 39.3911 1.6663 39.3911 2.27169V9.43196C16.9305 11.2147 0.0500488 18.8509 0.0500488 28.0027C0.0500488 37.1545 16.9305 44.7865 39.3952 46.5735V55.0071C39.3952 55.7294 39.973 56.3139 40.687 56.3139C41.174 56.3139 41.6157 56.0384 41.8385 55.6042L46.2382 46.9284C47.3113 46.9534 48.3885 46.9701 49.4822 46.9701C76.7799 46.9701 98.9102 38.478 98.9102 28.0027C98.9102 19.6025 84.6836 12.4798 64.9759 9.98724" fill="#83878B"/>
</g>
<defs>
<clipPath id="clip0_82_3683">
<rect width="240" height="56.3177" fill="white" transform="translate(0.0500488)"/>
</clipPath>
</defs>
</svg>
